<svg
  xmlns="http://www.w3.org/2000/svg"
  xmlns:xlink="http://www.w3.org/1999/xlink"
  width="1200"
  height="630"
  viewBox="0 0 1200 630"
  role="img"
  aria-labelledby="og-title og-description"
>
  <title id="og-title">자격증공장 재택근무반</title>
  <desc id="og-description">전문자격 온라인 성인관리형독서실</desc>

  <defs>
    <linearGradient id="background" x1="0" y1="0" x2="1" y2="1">
      <stop offset="0" stop-color="#fffefa" />
      <stop offset="0.54" stop-color="#fffaf6" />
      <stop offset="1" stop-color="#f2faf6" />
    </linearGradient>
    <linearGradient id="camera-one" x1="0" y1="0" x2="1" y2="1">
      <stop offset="0" stop-color="#164b61" />
      <stop offset="1" stop-color="#28745e" />
    </linearGradient>
    <linearGradient id="camera-two" x1="0" y1="0" x2="1" y2="1">
      <stop offset="0" stop-color="#143f56" />
      <stop offset="1" stop-color="#245e68" />
    </linearGradient>
    <filter id="soft-shadow" x="-30%" y="-30%" width="160%" height="180%">
      <feDropShadow dx="0" dy="20" stdDeviation="24" flood-color="#143f56" flood-opacity="0.12" />
    </filter>
    <filter id="tile-shadow" x="-20%" y="-20%" width="140%" height="160%">
      <feDropShadow dx="0" dy="7" stdDeviation="9" flood-color="#143f56" flood-opacity="0.1" />
    </filter>
    <pattern id="dots" width="28" height="28" patternUnits="userSpaceOnUse">
      <circle cx="2" cy="2" r="1.5" fill="#143f56" opacity="0.055" />
    </pattern>
  </defs>

  <rect width="1200" height="630" fill="url(#background)" />
  <circle cx="1068" cy="65" r="255" fill="#9fceb4" opacity="0.15" />
  <circle cx="82" cy="618" r="225" fill="#f47f72" opacity="0.1" />
  <rect width="1200" height="630" fill="url(#dots)" />

  <g transform="translate(82 58)">
    <rect width="316" height="112" rx="26" fill="#ffffff" opacity="0.76" />
    <image
      x="22"
      y="13"
      width="274"
      height="88"
      preserveAspectRatio="xMidYMid meet"
      xlink:href="logo/logo-oneline-3.webp"
    />
  </g>

  <g
    fill="#143f56"
    font-family="Pretendard, Apple SD Gothic Neo, Noto Sans KR, sans-serif"
  >
    <text x="88" y="248" font-size="30" font-weight="700" letter-spacing="-1">
      집에서도 함께 공부하고,
    </text>
    <text x="84" y="324" font-size="66" font-weight="900" letter-spacing="-3">
      끝까지 완주하는 곳
    </text>
    <text x="88" y="380" fill="#617782" font-size="23" font-weight="650" letter-spacing="-0.6">
      전문자격 온라인 성인관리형독서실
    </text>
  </g>

  <g
    transform="translate(88 430)"
    font-family="Pretendard, Apple SD Gothic Neo, Noto Sans KR, sans-serif"
    font-size="17"
    font-weight="800"
  >
    <g>
      <rect width="126" height="44" rx="22" fill="#edf8f3" stroke="#9fceb4" stroke-opacity="0.6" />
      <circle cx="23" cy="22" r="6" fill="#43a974" />
      <text x="40" y="28" fill="#143f56">출석 관리</text>
    </g>
    <g transform="translate(138)">
      <rect width="126" height="44" rx="22" fill="#fff4f1" stroke="#f47f72" stroke-opacity="0.45" />
      <circle cx="23" cy="22" r="6" fill="#f47f72" />
      <text x="40" y="28" fill="#143f56">실시간 캠</text>
    </g>
    <g transform="translate(276)">
      <rect width="126" height="44" rx="22" fill="#f2f5f7" stroke="#143f56" stroke-opacity="0.18" />
      <circle cx="23" cy="22" r="6" fill="#143f56" />
      <text x="40" y="28" fill="#143f56">1:1 상담</text>
    </g>
  </g>

  <g
    fill="#617782"
    font-family="Pretendard, Apple SD Gothic Neo, Noto Sans KR, sans-serif"
  >
    <text x="88" y="550" font-size="18" font-weight="800">jagongonline.com</text>
    <text x="88" y="580" font-size="15" font-weight="650">자격증공장 재택근무반</text>
  </g>

  <g transform="translate(690 72)" filter="url(#soft-shadow)">
    <rect width="430" height="486" rx="34" fill="#fffefa" stroke="#143f56" stroke-opacity="0.12" />
    <rect x="1" y="1" width="428" height="74" rx="33" fill="#ffffff" />
    <path d="M1 74H429" stroke="#143f56" stroke-opacity="0.09" />

    <g font-family="Pretendard, Apple SD Gothic Neo, Noto Sans KR, sans-serif">
      <text x="26" y="45" fill="#143f56" font-size="19" font-weight="900">오늘도 함께 공부 중</text>
      <circle cx="330" cy="37" r="6" fill="#43a974" />
      <text x="344" y="43" fill="#438565" font-size="13" font-weight="800">실시간 연결</text>
    </g>

    <g transform="translate(20 94)" filter="url(#tile-shadow)">
      <g>
        <rect width="187" height="144" rx="20" fill="url(#camera-one)" />
        <circle cx="93.5" cy="62" r="21" fill="#eaf6f1" opacity="0.92" />
        <path d="M60 114C66 90 121 90 127 114" fill="#eaf6f1" opacity="0.92" />
        <rect x="12" y="110" width="58" height="24" rx="12" fill="#fffefa" />
        <text
          x="25"
          y="127"
          fill="#143f56"
          font-family="Pretendard, Apple SD Gothic Neo, Noto Sans KR, sans-serif"
          font-size="12"
          font-weight="900"
        >김지원</text>
        <rect x="141" y="12" width="34" height="22" rx="11" fill="#143f56" fill-opacity="0.76" />
        <text
          x="150"
          y="27"
          fill="#ffffff"
          font-family="Arial, sans-serif"
          font-size="10"
          font-weight="700"
        >LIVE</text>
      </g>

      <g transform="translate(203)">
        <rect width="187" height="144" rx="20" fill="url(#camera-two)" />
        <circle cx="93.5" cy="62" r="21" fill="#eaf6f1" opacity="0.92" />
        <path d="M60 114C66 90 121 90 127 114" fill="#eaf6f1" opacity="0.92" />
        <rect x="12" y="110" width="48" height="24" rx="12" fill="#fffefa" />
        <text
          x="25"
          y="127"
          fill="#143f56"
          font-family="Pretendard, Apple SD Gothic Neo, Noto Sans KR, sans-serif"
          font-size="12"
          font-weight="900"
        >Hwan</text>
        <rect x="144" y="12" width="31" height="22" rx="11" fill="#143f56" fill-opacity="0.76" />
        <text
          x="152"
          y="27"
          fill="#ffffff"
          font-family="Arial, sans-serif"
          font-size="10"
          font-weight="700"
        >ON</text>
      </g>

      <g transform="translate(0 160)">
        <rect width="187" height="144" rx="20" fill="url(#camera-two)" />
        <circle cx="93.5" cy="62" r="21" fill="#eaf6f1" opacity="0.92" />
        <path d="M60 114C66 90 121 90 127 114" fill="#eaf6f1" opacity="0.92" />
        <rect x="12" y="110" width="51" height="24" rx="12" fill="#fffefa" />
        <text
          x="25"
          y="127"
          fill="#143f56"
          font-family="Pretendard, Apple SD Gothic Neo, Noto Sans KR, sans-serif"
          font-size="12"
          font-weight="900"
        >John</text>
        <rect x="144" y="12" width="31" height="22" rx="11" fill="#143f56" fill-opacity="0.76" />
        <text
          x="152"
          y="27"
          fill="#ffffff"
          font-family="Arial, sans-serif"
          font-size="10"
          font-weight="700"
        >ON</text>
      </g>

      <g transform="translate(203 160)">
        <rect width="187" height="144" rx="20" fill="url(#camera-one)" />
        <circle cx="93.5" cy="62" r="21" fill="#eaf6f1" opacity="0.92" />
        <path d="M60 114C66 90 121 90 127 114" fill="#eaf6f1" opacity="0.92" />
        <rect x="12" y="110" width="57" height="24" rx="12" fill="#fffefa" />
        <text
          x="25"
          y="127"
          fill="#143f56"
          font-family="Pretendard, Apple SD Gothic Neo, Noto Sans KR, sans-serif"
          font-size="12"
          font-weight="900"
        >Hassan</text>
        <rect x="144" y="12" width="31" height="22" rx="11" fill="#143f56" fill-opacity="0.76" />
        <text
          x="152"
          y="27"
          fill="#ffffff"
          font-family="Arial, sans-serif"
          font-size="10"
          font-weight="700"
        >ON</text>
      </g>
    </g>

    <g
      transform="translate(24 420)"
      font-family="Pretendard, Apple SD Gothic Neo, Noto Sans KR, sans-serif"
    >
      <rect width="382" height="42" rx="14" fill="#edf8f3" />
      <circle cx="22" cy="21" r="6" fill="#43a974" />
      <text x="38" y="27" fill="#143f56" font-size="14" font-weight="850">집에서도 흐트러지지 않는 공부 루틴</text>
    </g>
  </g>
</svg>
